<svg xmlns="http://www.w3.org/2000/svg" xmlns:xlink="http://www.w3.org/1999/xlink" width="500" zoomAndPan="magnify" viewBox="0 0 375 374.999991" height="500" preserveAspectRatio="xMidYMid meet" version="1.0"><defs><clipPath id="3bbb085704"><path d="M 93 47 L 281.828125 47 L 281.828125 328 L 93 328 Z M 93 47 " clip-rule="nonzero"/></clipPath></defs><rect x="-37.5" width="450" fill="#ffffff" y="-37.499999" height="449.999989" fill-opacity="1"/><rect x="-37.5" width="450" fill="#000000" y="-37.499999" height="449.999989" fill-opacity="1"/><g clip-path="url(#3bbb085704)"><path fill="#ffffff" d="M 161.652344 326.996094 C 156.972656 326.3125 155.269531 325.6875 153.710938 324.078125 C 152.621094 322.953125 151.027344 322.097656 150.171875 322.171875 C 147.820312 322.382812 143.011719 320.480469 143.011719 319.339844 C 143.011719 318.753906 141.488281 318.109375 139.359375 317.789062 C 135.46875 317.207031 132.027344 315.582031 130.300781 313.515625 C 129.058594 312.03125 123.398438 311.21875 121.214844 312.210938 C 118.234375 313.566406 111.027344 310.867188 106.773438 306.804688 C 103.71875 303.890625 102.089844 302.96875 99.207031 302.539062 C 94.566406 301.84375 92.855469 299.902344 93.914062 296.527344 C 94.332031 295.183594 95.835938 288.746094 97.253906 282.222656 C 100.929688 265.320312 101.996094 261.097656 106.445312 245.746094 C 108.625 238.230469 110.914062 229.839844 111.527344 227.101562 C 114.539062 213.734375 129.550781 178.414062 137.429688 166.164062 C 142.03125 159.015625 151.851562 145.167969 152.621094 144.742188 C 154.410156 143.761719 155.957031 138.539062 155.972656 133.421875 C 155.984375 128.90625 155.25 125.988281 151.699219 116.484375 C 146.53125 102.652344 144.316406 93.703125 145.054688 89.621094 C 146.390625 82.222656 146.632812 74.726562 145.757812 67.945312 C 145.234375 63.90625 144.582031 57.941406 144.304688 54.691406 C 143.746094 48.089844 143.175781 48.707031 150.890625 47.613281 C 153.867188 47.191406 154.09375 47.3125 155.40625 50.058594 C 160.976562 61.699219 168.09375 69.6875 174.609375 71.597656 C 184.195312 74.414062 202.773438 73.167969 210.757812 69.167969 C 214.730469 67.179688 221.992188 58.941406 225.484375 52.460938 C 228.140625 47.527344 229.78125 46.773438 235.394531 47.890625 C 237.34375 48.28125 239.066406 48.714844 239.21875 48.855469 C 239.371094 49 238.960938 51.617188 238.308594 54.667969 C 237.191406 59.882812 236.484375 65.824219 234.488281 86.882812 C 233.488281 97.460938 231.648438 105.648438 228.980469 111.390625 C 223.929688 122.265625 222.226562 128.363281 222.550781 134.402344 C 222.882812 140.492188 223.761719 142.542969 231.648438 155.582031 C 234.761719 160.730469 236.699219 164.484375 240.699219 173.132812 C 241.671875 175.238281 244.109375 180.0625 246.109375 183.851562 C 251.777344 194.578125 266.425781 229.105469 269.894531 239.925781 C 271.007812 243.398438 272.214844 246.242188 272.574219 246.242188 C 272.933594 246.242188 273.074219 246.949219 272.882812 247.816406 C 272.695312 248.679688 272.953125 250.316406 273.453125 251.453125 C 273.953125 252.585938 274.539062 254.546875 274.753906 255.808594 C 274.96875 257.074219 275.488281 259.140625 275.90625 260.402344 C 276.328125 261.667969 277.496094 268.898438 278.5 276.480469 C 279.507812 284.058594 280.765625 291.636719 281.292969 293.320312 C 281.824219 295.003906 282.160156 296.867188 282.039062 297.457031 C 281.671875 299.253906 278.3125 301.28125 273.636719 302.53125 L 269.199219 303.714844 L 269.320312 308.019531 L 269.441406 312.328125 L 261.242188 313.980469 C 255.386719 315.160156 252.96875 315.984375 252.777344 316.867188 C 252.628906 317.542969 251.464844 318.277344 250.1875 318.492188 C 247.300781 318.980469 232.074219 320.128906 229.769531 320.027344 C 228.835938 319.988281 227.5 320.464844 226.800781 321.085938 C 225.886719 321.894531 224.308594 322.105469 221.164062 321.835938 C 215.867188 321.382812 214.640625 321.714844 214.640625 323.609375 C 214.640625 325.59375 211.710938 326.152344 201.050781 326.199219 C 195.171875 326.226562 192.203125 326.523438 192.203125 327.089844 C 192.203125 328.226562 169.636719 328.160156 161.652344 326.996094 Z M 161.652344 326.996094 " fill-opacity="1" fill-rule="nonzero"/></g></svg>