<svg xmlns="http://www.w3.org/2000/svg" xmlns:xlink="http://www.w3.org/1999/xlink" width="500" zoomAndPan="magnify" viewBox="0 0 375 374.999991" height="500" preserveAspectRatio="xMidYMid meet" version="1.0"><rect x="-37.5" width="450" fill="#ffffff" y="-37.499999" height="449.999989" fill-opacity="1"/><rect x="-37.5" width="450" fill="#000000" y="-37.499999" height="449.999989" fill-opacity="1"/><path fill="#ffffff" d="M 297.242188 124.457031 C 293.953125 118.902344 289.996094 113.875 285.367188 109.375 C 280.738281 104.875 275.597656 101.058594 269.949219 97.929688 C 264.777344 95.136719 259.332031 93.042969 253.621094 91.644531 C 250.8125 90.886719 247.96875 90.300781 245.089844 89.886719 C 242.207031 89.472656 239.3125 89.234375 236.40625 89.171875 C 233.496094 89.109375 230.59375 89.226562 227.699219 89.515625 C 224.804688 89.808594 221.9375 90.273438 219.101562 90.914062 C 216.261719 91.554688 213.472656 92.363281 210.734375 93.339844 C 207.996094 94.320312 205.324219 95.460938 202.722656 96.765625 C 200.121094 98.070312 197.609375 99.523438 195.1875 101.132812 C 192.761719 102.742188 190.445312 104.492188 188.234375 106.382812 C 187.949219 106.613281 187.625 106.828125 187.324219 107.039062 C 187.1875 107.101562 187.050781 107.148438 186.910156 107.1875 C 164.15625 88.890625 138.703125 83.597656 111.324219 94.574219 C 105.964844 96.703125 100.910156 99.398438 96.160156 102.664062 C 91.410156 105.933594 87.082031 109.6875 83.179688 113.933594 C 63.660156 135.910156 65.082031 163.769531 65.554688 170.148438 C 66.710938 178.597656 69.152344 186.652344 72.882812 194.316406 C 76.835938 202.082031 81.917969 209.019531 88.128906 215.128906 C 88.875 215.808594 89.40625 216.632812 89.714844 217.59375 C 89.875 218.621094 90.125 219.621094 90.460938 220.605469 C 90.796875 221.585938 91.214844 222.53125 91.714844 223.4375 C 92.214844 224.347656 92.792969 225.207031 93.441406 226.011719 C 94.09375 226.820312 94.808594 227.566406 95.589844 228.25 C 96.371094 228.933594 97.203125 229.542969 98.089844 230.078125 C 98.980469 230.617188 99.90625 231.070312 100.871094 231.445312 C 101.839844 231.824219 102.832031 232.109375 103.847656 232.3125 C 104.867188 232.515625 105.894531 232.628906 106.929688 232.648438 C 107.261719 232.703125 107.585938 232.777344 107.90625 232.867188 C 108.882812 244.058594 114.9375 250.355469 126.570312 251.367188 C 126.703125 252.304688 126.855469 253.28125 126.976562 254.257812 C 127.085938 255.230469 127.273438 256.1875 127.542969 257.125 C 127.8125 258.066406 128.160156 258.976562 128.585938 259.855469 C 129.011719 260.734375 129.507812 261.574219 130.074219 262.371094 C 130.644531 263.164062 131.273438 263.90625 131.96875 264.59375 C 132.664062 265.28125 133.414062 265.90625 134.214844 266.464844 C 135.015625 267.027344 135.859375 267.511719 136.742188 267.929688 C 137.628906 268.34375 138.542969 268.683594 139.484375 268.941406 C 140.425781 269.203125 141.382812 269.378906 142.359375 269.476562 C 144.609375 269.707031 145.394531 270.386719 145.640625 272.777344 C 145.707031 273.582031 145.828125 274.375 146.007812 275.160156 C 146.1875 275.945312 146.421875 276.714844 146.714844 277.464844 C 147.007812 278.214844 147.355469 278.941406 147.753906 279.640625 C 148.152344 280.34375 148.601562 281.007812 149.097656 281.644531 C 149.59375 282.277344 150.136719 282.871094 150.722656 283.425781 C 151.304688 283.980469 151.929688 284.488281 152.589844 284.953125 C 153.246094 285.414062 153.9375 285.828125 154.65625 286.191406 C 155.378906 286.550781 156.121094 286.859375 156.886719 287.109375 C 157.6875 287.4375 158.507812 287.699219 159.351562 287.902344 C 160.191406 288.101562 161.042969 288.242188 161.90625 288.316406 C 162.769531 288.390625 163.632812 288.398438 164.496094 288.34375 C 165.359375 288.289062 166.210938 288.167969 167.058594 287.984375 C 167.902344 287.800781 168.730469 287.554688 169.539062 287.246094 C 170.347656 286.9375 171.128906 286.574219 171.882812 286.148438 C 172.636719 285.722656 173.355469 285.242188 174.035156 284.710938 C 174.71875 284.179688 175.355469 283.597656 175.953125 282.96875 C 178.078125 280.921875 180.003906 278.652344 182.78125 275.675781 C 186.011719 279.265625 188.71875 282.566406 191.734375 285.550781 C 192.648438 286.488281 193.65625 287.308594 194.761719 288.007812 C 195.867188 288.710938 197.035156 289.28125 198.269531 289.710938 C 199.507812 290.140625 200.777344 290.425781 202.078125 290.5625 C 203.378906 290.699219 204.679688 290.683594 205.976562 290.519531 C 206.949219 290.421875 207.90625 290.246094 208.851562 289.992188 C 209.792969 289.738281 210.710938 289.40625 211.597656 289 C 212.488281 288.589844 213.335938 288.113281 214.144531 287.566406 C 214.953125 287.015625 215.710938 286.40625 216.417969 285.730469 C 217.125 285.058594 217.769531 284.328125 218.355469 283.546875 C 218.941406 282.765625 219.460938 281.941406 219.910156 281.074219 C 220.355469 280.203125 220.730469 279.304688 221.03125 278.375 C 221.328125 277.445312 221.550781 276.496094 221.691406 275.53125 C 221.863281 274.4375 221.996094 273.339844 222.082031 272.671875 C 225.308594 271.894531 228.449219 270.855469 231.503906 269.566406 C 232.820312 268.90625 234.03125 268.082031 235.128906 267.097656 C 236.226562 266.113281 237.179688 265.003906 237.984375 263.765625 C 238.785156 262.527344 239.414062 261.207031 239.867188 259.804688 C 240.320312 258.402344 240.582031 256.960938 240.652344 255.488281 C 240.75 255.019531 240.949219 254.597656 241.253906 254.226562 C 241.558594 253.855469 241.933594 253.578125 242.375 253.390625 C 253.191406 251.570312 257.765625 246.933594 259.347656 235.9375 C 259.414062 235.648438 259.503906 235.371094 259.617188 235.097656 C 261.640625 234.90625 263.621094 234.484375 265.546875 233.832031 L 266.058594 233.601562 C 267.222656 233.167969 268.339844 232.628906 269.402344 231.980469 C 269.582031 231.882812 269.746094 231.773438 269.925781 231.675781 C 270.105469 231.578125 270.289062 231.484375 270.457031 231.375 C 270.5625 231.296875 270.660156 231.210938 270.757812 231.132812 C 271.128906 230.882812 271.476562 230.613281 271.808594 230.316406 C 272.878906 229.5 273.84375 228.574219 274.710938 227.542969 C 275.550781 226.488281 276.285156 225.367188 276.921875 224.175781 C 280.5 220.15625 284.484375 216.542969 288.164062 212.628906 C 293.371094 207.371094 297.589844 201.414062 300.816406 194.753906 C 304.429688 187.449219 306.871094 179.765625 308.140625 171.710938 C 311.535156 148.515625 298.175781 125.992188 297.242188 124.457031 Z M 112.894531 221.09375 C 112.507812 221.449219 112.089844 221.765625 111.644531 222.042969 C 111.195312 222.316406 110.726562 222.550781 110.234375 222.734375 C 109.746094 222.921875 109.238281 223.058594 108.722656 223.144531 C 108.203125 223.234375 107.683594 223.273438 107.15625 223.257812 C 106.632812 223.246094 106.113281 223.183594 105.601562 223.070312 C 105.085938 222.957031 104.589844 222.796875 104.105469 222.589844 C 103.625 222.378906 103.167969 222.128906 102.734375 221.828125 C 102.300781 221.53125 101.898438 221.195312 101.53125 220.824219 C 101.136719 220.460938 100.78125 220.058594 100.464844 219.625 C 100.152344 219.191406 99.882812 218.730469 99.660156 218.242188 C 99.4375 217.753906 99.265625 217.246094 99.144531 216.726562 C 99.023438 216.203125 98.953125 215.671875 98.9375 215.136719 C 98.921875 214.601562 98.960938 214.066406 99.050781 213.539062 C 99.140625 213.007812 99.28125 212.496094 99.476562 211.996094 C 99.671875 211.496094 99.910156 211.019531 100.199219 210.566406 C 100.488281 210.113281 100.820312 209.695312 101.195312 209.308594 C 103.976562 206.191406 106.9375 203.246094 110.070312 200.480469 C 111.652344 199.417969 113.347656 198.582031 115.152344 197.96875 C 116 197.988281 116.832031 198.125 117.640625 198.378906 C 118.449219 198.632812 119.210938 198.992188 119.917969 199.457031 C 120.628906 199.921875 121.261719 200.472656 121.816406 201.117188 C 122.371094 201.757812 122.828125 202.460938 123.1875 203.230469 C 123.566406 203.9375 123.824219 204.683594 123.964844 205.46875 C 124.105469 206.257812 124.121094 207.050781 124.007812 207.839844 C 123.894531 208.632812 123.664062 209.390625 123.308594 210.109375 C 122.957031 210.824219 122.5 211.472656 121.941406 212.042969 C 119.078125 215.214844 116.0625 218.234375 112.894531 221.097656 Z M 131.429688 239.714844 C 130.828125 240.277344 130.15625 240.734375 129.414062 241.085938 C 128.667969 241.4375 127.890625 241.664062 127.074219 241.769531 C 126.257812 241.875 125.445312 241.851562 124.632812 241.699219 C 123.824219 241.546875 123.058594 241.273438 122.335938 240.878906 C 119.164062 239.394531 117.710938 236.738281 117.59375 232.171875 C 118.15625 230.605469 118.925781 229.144531 119.902344 227.792969 C 122.546875 224.800781 125.34375 221.960938 128.292969 219.269531 C 128.679688 218.898438 129.097656 218.570312 129.546875 218.277344 C 129.996094 217.984375 130.46875 217.738281 130.964844 217.535156 C 131.460938 217.335938 131.96875 217.179688 132.496094 217.074219 C 133.019531 216.96875 133.550781 216.914062 134.085938 216.90625 C 134.621094 216.902344 135.152344 216.945312 135.679688 217.039062 C 136.203125 217.132812 136.71875 217.277344 137.21875 217.46875 C 137.71875 217.660156 138.195312 217.894531 138.652344 218.175781 C 139.105469 218.457031 139.53125 218.78125 139.925781 219.140625 C 140.335938 219.507812 140.707031 219.910156 141.035156 220.351562 C 141.363281 220.792969 141.644531 221.261719 141.875 221.761719 C 142.109375 222.257812 142.289062 222.777344 142.417969 223.308594 C 142.546875 223.84375 142.617188 224.386719 142.636719 224.9375 C 142.65625 225.484375 142.617188 226.03125 142.523438 226.574219 C 142.433594 227.117188 142.285156 227.640625 142.085938 228.15625 C 141.886719 228.667969 141.636719 229.152344 141.339844 229.617188 C 141.039062 230.078125 140.699219 230.503906 140.3125 230.894531 C 137.5 233.988281 134.539062 236.929688 131.429688 239.722656 Z M 150.683594 257.75 C 150.296875 258.152344 149.871094 258.511719 149.410156 258.832031 C 148.949219 259.148438 148.460938 259.417969 147.949219 259.640625 C 147.433594 259.863281 146.90625 260.03125 146.355469 260.148438 C 145.808594 260.261719 145.257812 260.324219 144.695312 260.332031 C 144.136719 260.335938 143.582031 260.289062 143.03125 260.183594 C 142.480469 260.082031 141.949219 259.921875 141.429688 259.714844 C 140.910156 259.503906 140.417969 259.246094 139.949219 258.9375 C 139.484375 258.628906 139.050781 258.277344 138.652344 257.882812 C 138.257812 257.488281 137.90625 257.058594 137.597656 256.589844 C 137.289062 256.125 137.027344 255.632812 136.820312 255.113281 C 136.609375 254.597656 136.453125 254.0625 136.351562 253.511719 C 136.246094 252.960938 136.199219 252.40625 136.207031 251.847656 C 136.214844 251.289062 136.28125 250.738281 136.398438 250.191406 C 136.519531 249.644531 136.691406 249.113281 136.917969 248.601562 C 137.140625 248.089844 137.414062 247.605469 137.738281 247.152344 C 138.0625 246.695312 138.425781 246.273438 138.832031 245.890625 C 141.46875 243.15625 144.128906 240.417969 146.925781 237.84375 C 147.507812 237.230469 148.171875 236.726562 148.917969 236.324219 C 149.660156 235.925781 150.449219 235.648438 151.28125 235.5 C 152.113281 235.351562 152.949219 235.332031 153.785156 235.449219 C 154.621094 235.566406 155.421875 235.808594 156.179688 236.179688 C 159.503906 237.683594 160.953125 240.410156 161.28125 244.964844 C 160.558594 246.703125 159.648438 248.332031 158.546875 249.855469 C 156.066406 252.628906 153.445312 255.261719 150.683594 257.757812 Z M 177.453125 268.097656 C 174.769531 271.058594 171.933594 273.859375 168.945312 276.503906 C 167.503906 277.527344 165.953125 278.339844 164.292969 278.9375 C 163.433594 279.011719 162.582031 278.960938 161.738281 278.785156 C 160.894531 278.605469 160.09375 278.3125 159.335938 277.898438 C 158.582031 277.488281 157.898438 276.972656 157.292969 276.359375 C 156.6875 275.746094 156.183594 275.058594 155.78125 274.296875 C 155.382812 273.628906 155.09375 272.917969 154.917969 272.160156 C 154.742188 271.402344 154.683594 270.636719 154.746094 269.863281 C 154.8125 269.085938 154.992188 268.339844 155.289062 267.621094 C 155.589844 266.90625 155.988281 266.25 156.492188 265.65625 C 159.527344 262.140625 162.796875 258.859375 166.304688 255.8125 C 166.707031 255.472656 167.136719 255.175781 167.59375 254.917969 C 168.054688 254.660156 168.535156 254.453125 169.035156 254.289062 C 169.535156 254.128906 170.046875 254.015625 170.566406 253.953125 C 171.089844 253.894531 171.613281 253.882812 172.136719 253.925781 C 172.660156 253.96875 173.175781 254.0625 173.683594 254.207031 C 174.1875 254.351562 174.675781 254.542969 175.140625 254.78125 C 175.609375 255.023438 176.050781 255.308594 176.460938 255.632812 C 176.875 255.960938 177.25 256.324219 177.589844 256.726562 C 177.945312 257.113281 178.261719 257.527344 178.539062 257.972656 C 178.8125 258.417969 179.046875 258.882812 179.234375 259.375 C 179.421875 259.863281 179.5625 260.367188 179.652344 260.882812 C 179.746094 261.398438 179.789062 261.917969 179.785156 262.441406 C 179.777344 262.964844 179.722656 263.484375 179.617188 264 C 179.511719 264.511719 179.359375 265.011719 179.160156 265.496094 C 178.960938 265.980469 178.71875 266.441406 178.429688 266.878906 C 178.144531 267.320312 177.816406 267.726562 177.453125 268.101562 Z M 265.957031 223.011719 C 265.152344 223.8125 264.222656 224.421875 263.167969 224.835938 L 262.929688 224.921875 C 262.082031 225.175781 261.214844 225.304688 260.328125 225.304688 C 259.441406 225.308594 258.570312 225.1875 257.722656 224.9375 C 256.871094 224.6875 256.070312 224.324219 255.324219 223.84375 C 254.578125 223.367188 253.917969 222.792969 253.335938 222.121094 C 241.269531 210.140625 229.21875 198.140625 217.195312 186.113281 C 216.800781 185.71875 216.433594 185.289062 216.015625 184.929688 C 215.789062 184.691406 215.539062 184.480469 215.269531 184.296875 C 215.003906 184.109375 214.71875 183.953125 214.417969 183.824219 C 214.117188 183.695312 213.808594 183.59375 213.488281 183.527344 C 213.167969 183.460938 212.84375 183.425781 212.515625 183.421875 C 212.1875 183.417969 211.863281 183.449219 211.542969 183.507812 C 211.222656 183.570312 210.910156 183.664062 210.609375 183.785156 C 210.304688 183.910156 210.019531 184.0625 209.746094 184.242188 C 209.472656 184.425781 209.222656 184.628906 208.988281 184.859375 C 208.777344 185.09375 208.589844 185.347656 208.425781 185.621094 C 208.261719 185.890625 208.128906 186.175781 208.023438 186.476562 C 207.917969 186.773438 207.84375 187.082031 207.800781 187.394531 C 207.757812 187.707031 207.746094 188.023438 207.765625 188.339844 C 207.785156 188.652344 207.835938 188.964844 207.917969 189.269531 C 208 189.578125 208.109375 189.871094 208.253906 190.15625 C 208.394531 190.4375 208.5625 190.703125 208.757812 190.953125 C 208.949219 191.203125 209.167969 191.433594 209.410156 191.636719 C 212.695312 195.050781 216.113281 198.339844 219.464844 201.691406 C 228.800781 211.015625 238.167969 220.316406 247.453125 229.691406 C 248.101562 230.335938 248.632812 231.070312 249.039062 231.886719 C 249.449219 232.707031 249.714844 233.570312 249.835938 234.476562 C 249.960938 235.382812 249.9375 236.28125 249.761719 237.179688 C 249.589844 238.078125 249.277344 238.925781 248.824219 239.722656 C 248.394531 240.503906 247.851562 241.195312 247.191406 241.796875 C 246.527344 242.402344 245.789062 242.878906 244.96875 243.234375 C 244.148438 243.589844 243.296875 243.804688 242.40625 243.875 C 241.515625 243.949219 240.636719 243.875 239.769531 243.652344 C 237.972656 243.140625 236.40625 242.230469 235.074219 240.917969 C 222.886719 228.921875 210.796875 216.824219 198.679688 204.757812 C 198.167969 204.21875 197.628906 203.710938 197.058594 203.238281 C 196.835938 203.027344 196.597656 202.84375 196.339844 202.683594 C 196.085938 202.519531 195.8125 202.382812 195.53125 202.273438 C 195.246094 202.164062 194.957031 202.082031 194.65625 202.03125 C 194.359375 201.976562 194.058594 201.953125 193.753906 201.957031 C 193.449219 201.960938 193.148438 201.996094 192.851562 202.058594 C 192.554688 202.121094 192.265625 202.210938 191.988281 202.332031 C 191.707031 202.449219 191.441406 202.59375 191.1875 202.761719 C 190.9375 202.933594 190.703125 203.125 190.488281 203.339844 C 190.269531 203.550781 190.070312 203.78125 189.898438 204.03125 C 189.726562 204.28125 189.578125 204.546875 189.460938 204.824219 C 189.339844 205.105469 189.25 205.394531 189.191406 205.695312 C 189.132812 205.992188 189.105469 206.292969 189.105469 206.597656 C 189.109375 206.902344 189.140625 207.203125 189.207031 207.5 C 189.269531 207.796875 189.363281 208.085938 189.484375 208.363281 C 189.609375 208.644531 189.757812 208.90625 189.9375 209.152344 C 190.113281 209.402344 190.3125 209.628906 190.539062 209.835938 C 194.507812 214.011719 198.640625 218.039062 202.714844 222.105469 C 211.269531 230.644531 219.851562 239.152344 228.371094 247.722656 C 228.78125 248.085938 229.152344 248.484375 229.484375 248.921875 C 229.816406 249.355469 230.105469 249.820312 230.347656 250.308594 C 230.589844 250.800781 230.785156 251.308594 230.933594 251.835938 C 231.078125 252.363281 231.175781 252.898438 231.21875 253.445312 C 231.261719 253.992188 231.253906 254.535156 231.191406 255.082031 C 231.132812 255.625 231.019531 256.15625 230.859375 256.679688 C 230.695312 257.203125 230.484375 257.707031 230.226562 258.1875 C 229.96875 258.671875 229.664062 259.125 229.320312 259.550781 C 228.945312 259.996094 228.527344 260.398438 228.066406 260.757812 C 227.605469 261.117188 227.113281 261.425781 226.589844 261.683594 C 226.0625 261.9375 225.515625 262.136719 224.949219 262.28125 C 224.382812 262.421875 223.808594 262.503906 223.226562 262.523438 C 222.640625 262.546875 222.0625 262.503906 221.488281 262.40625 C 220.914062 262.304688 220.355469 262.144531 219.8125 261.929688 C 219.269531 261.710938 218.757812 261.441406 218.269531 261.113281 C 217.785156 260.789062 217.339844 260.417969 216.933594 260 C 210.855469 254.117188 204.925781 248.078125 198.910156 242.132812 C 196.332031 239.585938 193.695312 237.105469 191.066406 234.613281 C 190.71875 234.28125 190.34375 233.976562 189.953125 233.699219 L 175.363281 219.113281 C 175.152344 218.902344 174.921875 218.714844 174.675781 218.546875 C 174.425781 218.382812 174.164062 218.242188 173.886719 218.125 C 173.609375 218.011719 173.324219 217.925781 173.03125 217.867188 C 172.738281 217.808594 172.441406 217.777344 172.140625 217.777344 C 171.84375 217.777344 171.546875 217.808594 171.253906 217.867188 C 170.957031 217.925781 170.675781 218.011719 170.398438 218.125 C 170.121094 218.238281 169.859375 218.378906 169.609375 218.546875 C 169.359375 218.710938 169.128906 218.902344 168.917969 219.113281 C 168.707031 219.324219 168.515625 219.554688 168.351562 219.804688 C 168.183594 220.050781 168.042969 220.316406 167.929688 220.59375 C 167.816406 220.867188 167.726562 221.152344 167.671875 221.445312 C 167.613281 221.742188 167.582031 222.035156 167.582031 222.335938 C 167.582031 222.636719 167.609375 222.933594 167.667969 223.226562 C 167.726562 223.519531 167.8125 223.804688 167.929688 224.082031 C 168.042969 224.355469 168.183594 224.621094 168.351562 224.867188 C 168.515625 225.117188 168.703125 225.347656 168.917969 225.558594 L 183.425781 240.066406 C 183.71875 240.503906 184.054688 240.910156 184.421875 241.28125 C 192.761719 249.640625 201.136719 257.949219 209.492188 266.300781 C 209.976562 266.703125 210.414062 267.152344 210.800781 267.65625 C 211.183594 268.15625 211.511719 268.691406 211.773438 269.265625 C 212.039062 269.839844 212.234375 270.433594 212.367188 271.050781 C 212.496094 271.671875 212.554688 272.292969 212.542969 272.925781 C 212.53125 273.558594 212.453125 274.179688 212.300781 274.792969 C 212.148438 275.40625 211.933594 275.996094 211.648438 276.558594 C 211.363281 277.121094 211.019531 277.648438 210.617188 278.132812 C 210.214844 278.621094 209.765625 279.054688 209.261719 279.441406 C 208.914062 279.730469 208.539062 279.988281 208.144531 280.214844 C 207.75 280.441406 207.339844 280.632812 206.914062 280.789062 C 206.484375 280.945312 206.046875 281.0625 205.601562 281.144531 C 205.152344 281.226562 204.703125 281.269531 204.246094 281.273438 C 203.792969 281.277344 203.339844 281.242188 202.890625 281.171875 C 202.441406 281.097656 202.003906 280.988281 201.574219 280.839844 C 201.140625 280.691406 200.726562 280.511719 200.328125 280.292969 C 199.929688 280.074219 199.550781 279.824219 199.195312 279.542969 C 195.648438 276.410156 192.347656 272.988281 189.039062 269.597656 C 188.527344 268.933594 188.363281 268.191406 188.542969 267.371094 C 188.730469 266.714844 188.878906 266.054688 188.992188 265.382812 C 189.101562 264.710938 189.175781 264.035156 189.210938 263.355469 C 189.242188 262.671875 189.238281 261.992188 189.195312 261.3125 C 189.152344 260.636719 189.070312 259.960938 188.949219 259.289062 C 188.832031 258.621094 188.671875 257.957031 188.476562 257.304688 C 188.28125 256.652344 188.050781 256.015625 187.78125 255.390625 C 187.511719 254.761719 187.210938 254.15625 186.871094 253.5625 C 186.535156 252.972656 186.164062 252.402344 185.761719 251.851562 C 185.359375 251.304688 184.925781 250.78125 184.464844 250.28125 C 184.003906 249.78125 183.515625 249.308594 182.996094 248.863281 C 182.480469 248.417969 181.941406 248.007812 181.378906 247.625 C 180.816406 247.242188 180.234375 246.890625 179.628906 246.574219 C 179.027344 246.257812 178.40625 245.976562 177.773438 245.730469 C 177.136719 245.488281 176.492188 245.277344 175.832031 245.105469 C 175.171875 244.933594 174.507812 244.800781 173.832031 244.703125 C 173.160156 244.609375 172.480469 244.550781 171.800781 244.53125 C 171.460938 244.480469 171.132812 244.402344 170.808594 244.296875 C 169.894531 233.054688 163.695312 226.859375 152.222656 225.816406 C 151.226562 214.546875 145.132812 208.289062 133.953125 207.304688 C 133.421875 204.589844 132.664062 201.941406 131.675781 199.355469 C 131.390625 198.710938 131.066406 198.085938 130.707031 197.484375 C 130.34375 196.878906 129.949219 196.296875 129.519531 195.738281 C 129.085938 195.179688 128.625 194.648438 128.132812 194.148438 C 127.636719 193.644531 127.113281 193.175781 126.5625 192.734375 C 126.011719 192.292969 125.4375 191.890625 124.839844 191.519531 C 124.242188 191.148438 123.621094 190.8125 122.980469 190.515625 C 122.34375 190.21875 121.6875 189.960938 121.019531 189.742188 C 120.347656 189.523438 119.667969 189.347656 118.976562 189.210938 C 118.285156 189.074219 117.589844 188.980469 116.886719 188.925781 C 116.183594 188.871094 115.480469 188.859375 114.777344 188.890625 C 114.070312 188.921875 113.371094 188.996094 112.675781 189.109375 C 111.980469 189.226562 111.296875 189.382812 110.617188 189.578125 C 109.941406 189.773438 109.28125 190.011719 108.632812 190.289062 C 107.984375 190.5625 107.355469 190.878906 106.742188 191.230469 C 106.132812 191.582031 105.546875 191.96875 104.980469 192.390625 C 104.417969 192.8125 103.878906 193.265625 103.371094 193.753906 C 99.417969 197.261719 95.542969 200.886719 91.332031 204.738281 C 89.8125 203.144531 88.386719 201.46875 87.054688 199.71875 C 85.71875 197.964844 84.484375 196.144531 83.351562 194.257812 C 82.21875 192.371094 81.191406 190.425781 80.269531 188.425781 C 79.351562 186.425781 78.542969 184.378906 77.847656 182.289062 C 77.15625 180.199219 76.578125 178.078125 76.113281 175.925781 C 75.652344 173.773438 75.3125 171.601562 75.089844 169.410156 C 74.867188 167.21875 74.765625 165.023438 74.785156 162.820312 C 74.804688 160.621094 74.945312 158.425781 75.207031 156.238281 C 78.261719 128.96875 93.296875 110.464844 119.214844 101.652344 C 121.785156 100.789062 124.402344 100.101562 127.0625 99.585938 C 129.726562 99.070312 132.410156 98.730469 135.117188 98.570312 C 137.824219 98.40625 140.53125 98.425781 143.234375 98.621094 C 145.9375 98.820312 148.617188 99.191406 151.273438 99.742188 C 153.929688 100.292969 156.535156 101.019531 159.09375 101.914062 C 161.65625 102.808594 164.144531 103.871094 166.5625 105.09375 C 168.984375 106.320312 171.308594 107.699219 173.546875 109.230469 C 175.785156 110.765625 177.910156 112.4375 179.925781 114.25 C 172.539062 121.625 165.292969 128.835938 158.082031 136.0625 C 155.199219 138.957031 152.214844 141.78125 149.589844 144.902344 C 148.796875 145.863281 148.101562 146.890625 147.5 147.980469 C 146.898438 149.074219 146.402344 150.210938 146.015625 151.394531 C 145.625 152.578125 145.351562 153.789062 145.1875 155.023438 C 145.023438 156.261719 144.976562 157.5 145.042969 158.746094 C 145.113281 159.988281 145.292969 161.21875 145.589844 162.429688 C 145.886719 163.636719 146.292969 164.8125 146.808594 165.945312 C 147.324219 167.082031 147.941406 168.15625 148.65625 169.179688 C 149.371094 170.199219 150.175781 171.144531 151.070312 172.011719 C 151.960938 172.886719 152.921875 173.667969 153.957031 174.363281 C 154.992188 175.058594 156.078125 175.652344 157.222656 176.144531 C 158.367188 176.640625 159.546875 177.023438 160.761719 177.300781 C 161.976562 177.578125 163.207031 177.742188 164.449219 177.792969 C 165.695312 177.84375 166.933594 177.78125 168.167969 177.601562 C 169.402344 177.421875 170.609375 177.136719 171.789062 176.734375 C 172.96875 176.335938 174.101562 175.832031 175.1875 175.222656 C 176.273438 174.613281 177.296875 173.910156 178.253906 173.113281 C 181.597656 170.191406 194.933594 157.109375 203.546875 148.734375 C 220.953125 166.058594 251.75 196.785156 265.386719 210.4375 C 265.855469 210.808594 266.277344 211.222656 266.65625 211.683594 C 267.039062 212.144531 267.363281 212.644531 267.636719 213.171875 C 267.90625 213.703125 268.121094 214.257812 268.273438 214.835938 C 268.425781 215.414062 268.515625 216 268.542969 216.597656 C 268.570312 217.191406 268.535156 217.785156 268.433594 218.371094 C 268.335938 218.960938 268.171875 219.53125 267.949219 220.085938 C 267.726562 220.640625 267.445312 221.164062 267.109375 221.65625 C 266.777344 222.148438 266.390625 222.601562 265.957031 223.011719 Z M 299.023438 166.417969 C 298.535156 171.707031 297.441406 176.867188 295.738281 181.902344 C 294.035156 186.933594 291.773438 191.699219 288.949219 196.199219 C 287.285156 198.726562 285.488281 201.160156 283.558594 203.492188 C 281.636719 205.8125 279.671875 208.050781 277.902344 210.277344 C 275.285156 207.542969 272.785156 204.90625 270.332031 202.324219 C 270.332031 202.324219 266.816406 198.679688 262.996094 194.757812 C 257.507812 189.144531 234.703125 166.355469 203.527344 135.480469 C 197.585938 141.453125 176.925781 161.570312 172.832031 165.421875 C 172.382812 165.859375 171.894531 166.253906 171.371094 166.605469 C 170.851562 166.957031 170.300781 167.261719 169.726562 167.515625 C 169.148438 167.769531 168.558594 167.972656 167.945312 168.121094 C 167.335938 168.273438 166.714844 168.371094 166.085938 168.410156 C 165.460938 168.453125 164.832031 168.4375 164.207031 168.371094 C 163.582031 168.300781 162.96875 168.175781 162.363281 168 C 161.757812 167.824219 161.175781 167.59375 160.613281 167.316406 C 160.046875 167.035156 159.511719 166.707031 159.007812 166.332031 C 158.679688 166.101562 158.363281 165.851562 158.0625 165.585938 C 157.765625 165.316406 157.480469 165.035156 157.210938 164.734375 C 156.941406 164.4375 156.691406 164.125 156.457031 163.796875 C 156.222656 163.46875 156.007812 163.128906 155.808594 162.78125 C 155.613281 162.429688 155.4375 162.066406 155.28125 161.699219 C 155.125 161.328125 154.988281 160.949219 154.875 160.5625 C 154.761719 160.179688 154.667969 159.789062 154.597656 159.390625 C 154.527344 158.996094 154.480469 158.597656 154.453125 158.195312 C 154.425781 157.796875 154.421875 157.394531 154.441406 156.992188 C 154.457031 156.589844 154.5 156.191406 154.5625 155.792969 C 154.625 155.398438 154.707031 155.003906 154.816406 154.617188 C 154.921875 154.230469 155.050781 153.847656 155.199219 153.472656 C 155.347656 153.101562 155.515625 152.738281 155.703125 152.382812 C 155.894531 152.027344 156.101562 151.683594 156.328125 151.351562 C 156.558594 151.019531 156.800781 150.703125 157.066406 150.398438 C 157.328125 150.09375 157.605469 149.804688 157.902344 149.53125 C 166.671875 140.6875 175.574219 131.976562 184.339844 123.144531 C 190.144531 116.648438 196.792969 111.175781 204.285156 106.734375 C 208.945312 104.1875 213.839844 102.230469 218.96875 100.859375 C 224.097656 99.484375 229.3125 98.738281 234.621094 98.613281 C 239.839844 98.761719 244.992188 99.4375 250.070312 100.644531 C 255.152344 101.851562 260.058594 103.558594 264.789062 105.769531 C 268.289062 107.351562 271.5625 109.3125 274.601562 111.664062 C 276.933594 113.507812 279.109375 115.519531 281.128906 117.699219 C 283.167969 119.820312 285.023438 122.089844 286.699219 124.507812 C 288.5625 127.253906 290.238281 130.109375 291.726562 133.078125 C 294.46875 138.1875 296.457031 143.574219 297.699219 149.238281 C 298.9375 154.90625 299.378906 160.628906 299.023438 166.417969 Z M 299.023438 166.417969 " fill-opacity="1" fill-rule="nonzero"/></svg>