<?xml version="1.0" encoding="iso-8859-1"?>
<!-- Uploaded to: SVG Repo, www.svgrepo.com, Generator: SVG Repo Mixer Tools -->
<!DOCTYPE svg PUBLIC "-//W3C//DTD SVG 1.1//EN" "http://www.w3.org/Graphics/SVG/1.1/DTD/svg11.dtd">
<svg fill="#000000" version="1.1" id="Capa_1" xmlns="http://www.w3.org/2000/svg" xmlns:xlink="http://www.w3.org/1999/xlink" 
	 width="800px" height="800px" viewBox="0 0 245.557 245.557"
	 xml:space="preserve">
<g>
	<g>
		<path d="M36.28,90.371c0,1.724,1.397,3.118,3.118,3.118H89.38c2.208,3.52,3.916,7.822,6.826,15.832
			c0.313,0.904,0.612,1.784,0.95,2.683c0.231,0.648,0.447,1.254,0.691,1.945c0.076,0.207,0.268,0.311,0.38,0.487
			c1.178,2.667,2.512,5.325,4.123,7.974H74.559c-1.708,0-3.118,1.406-3.118,3.117c0,1.718,1.41,3.118,3.118,3.118h31.968
			c4.189,5.614,9.377,11.131,15.688,16.368c2.576,2.143,5.088,4.092,7.575,5.857c0.207,0.676,0.433,1.363,0.676,2.027
			c3.349,9.158,10.084,16.472,18.949,20.569c1.23,0.579,2.497,1.048,3.77,1.498v32.291c0,1.723,1.395,3.117,3.117,3.117
			c1.724,0,3.118-1.395,3.118-3.117v-30.544c2.929,0.604,5.863,0.908,8.786,0.908c7.039,0,13.896-1.736,20.131-4.854v69.672
			c0,1.711,1.413,3.118,3.118,3.118c1.723,0,3.117-1.407,3.117-3.118v-73.453c6.041-4.354,11.101-10.175,14.438-17.373
			c0.316-0.676,0.341-1.564,0.128-2.289c-0.329-1.145-1.255-1.967-2.43-2.204c-1.163-0.188-2.338,0.256-3.038,1.181
			c-2.405,3.18-5.554,5.785-9.098,7.904V90.377c0-1.72-1.395-3.117-3.117-3.117H99.102c0.454-8.391,3.099-16.042,7.526-22.265
			c2.207,0.625,4.445,1.023,6.713,1.023c3.629,0,7.271-0.779,10.714-2.338c6.741-3.036,11.923-8.629,14.59-15.707l3.062-8.117
			c0.378-0.98,0.22-2.076-0.39-2.938c-0.608-0.855-1.595-1.227-2.654-1.291c-0.22,0.076-23.998,0.804-33.146-12.34
			c-0.978-1.422-2.944-1.745-4.333-0.773c-1.428,0.986-1.76,2.938-0.773,4.335c8.443,12.115,25.638,14.513,33.905,14.937
			l-1.486,3.985c-2.082,5.52-6.102,9.852-11.313,12.215c-4.801,2.177-10.068,2.362-14.87,0.548
			c-4.969-1.875-8.881-5.672-11.024-10.717c-2.153-5.094-2.208-10.836-0.201-16.182l7.995-21.23c0.78-2.07,3.462-3.517,7.337-3.997
			c4.634-0.573,10.382,0.356,16.134,2.493c9.712,3.681,14.163,9.898,13.115,12.702c-0.81,1.498-9.62,2.938-17.625-0.095
			c-6.692-2.523-10.738-5.961-11.107-6.57c0.563-0.743,5.264-2.563,12.41,0.548c3.991,1.726,5.949,3.842,6.47,5.243
			c0.597,1.629,2.411,2.457,4.013,1.848c1.619-0.6,2.441-2.39,1.845-4.003c-1.285-3.492-4.786-6.622-9.828-8.812
			c-5.897-2.551-12.047-2.986-16.422-1.135c-2.165,0.91-3.617,2.29-4.271,3.992c-2.932,7.806,12.87,14.035,14.684,14.714
			c8.687,3.279,22.999,3.517,25.653-3.51c2.723-7.201-4.493-16.124-16.751-20.758c-6.671-2.518-13.43-3.529-19.077-2.868
			c-6.366,0.761-10.781,3.592-12.422,8.001l-8.001,21.205c-2.573,6.841-2.469,14.225,0.308,20.801
			c2.25,5.325,6.092,9.536,10.894,12.31c-4.67,7.033-7.471,15.493-7.925,24.709h-0.219c-1.678-2.174-3.699-4.42-6.397-7.264
			c1.042-1.678,1.696-3.602,1.745-5.688c0.076-3.054-1.047-5.94-3.16-8.153c-2.116-2.213-4.963-3.468-8.3-3.522
			c-6.235,0-11.25,4.887-11.405,11.152c-0.131,6.312,4.877,11.563,11.167,11.691c0.024,0,0.25,0,0.274,0
			c1.827,0,3.535-0.484,5.082-1.263c1.06,1.12,1.991,2.119,2.85,3.047H39.397C37.677,87.254,36.28,88.639,36.28,90.371z
			 M128.232,141.882c-0.68-0.547-1.367-1.113-2.053-1.686c-4.5-3.739-8.317-7.624-11.627-11.558h15.598
			C128.694,132.938,128.031,137.419,128.232,141.882z M153.18,168.261c-0.39-0.152-0.773-0.274-1.157-0.444
			c-5.109-2.369-9.377-6.017-12.416-10.559c4.805,2.746,9.311,4.804,13.573,6.362V168.261z M153.18,156.917
			c-5.511-2.217-11.484-5.328-17.97-9.828c-1.431-6.145-0.822-12.55,1.662-18.438h16.308V156.917z M159.415,170.294v-4.7
			c8.391,2.253,15.503,2.496,21.062,1.833c2.637-0.311,5.188-0.822,7.643-1.529C179.637,170.958,169.353,172.639,159.415,170.294z
			 M188.338,93.489v65.632c-2.728,0.979-5.571,1.76-8.573,2.112c-5.273,0.615-12.13,0.299-20.35-2.131v-33.576
			c0-1.723-1.401-3.117-3.118-3.117h-15.661c2.624-3.154,5.955-5.629,9.913-7.097c5.151-1.894,10.668-1.827,15.795-0.055
			c-0.128,1.571,0.062,3.154,0.634,4.661c1.559,4.165,5.602,6.966,10.077,6.966c1.297,0,2.569-0.231,3.794-0.694
			c5.553-2.101,8.354-8.327,6.271-13.896c-2.027-5.355-8.434-8.317-13.89-6.259c-1.863,0.691-3.428,1.909-4.621,3.437
			c-6.004-2.146-12.397-2.308-18.548-0.457c0.013-3.921-1.193-7.408-3.763-10.37c-1.931-2.183-4.434-3.833-7.161-5.176
			L188.338,93.489L188.338,93.489z M172.92,114.271c0.5-1.103,1.401-1.943,2.521-2.375c0.523-0.186,1.06-0.292,1.607-0.292
			c1.875,0,3.58,1.172,4.238,2.923c0.889,2.344-0.305,4.978-2.631,5.849c-2.308,0.877-4.999-0.391-5.846-2.643
			C172.385,116.609,172.421,115.382,172.92,114.271z M141.61,102.775c1.894,2.159,2.605,4.719,2.21,7.788
			c-0.092,0.399-0.719,1.446-1.626,1.815c-1.504-8.686-8.214-11.323-8.549-11.459c-1.62-0.612-3.41,0.216-4.022,1.839
			c-0.6,1.613,0.223,3.41,1.843,4.01c0.061,0.024,5.06,2,4.798,9.818c-0.518,1.678-1.961,4.034-6.028,3.4
			c-3.763-0.59-5.453-2.627-6.348-13.743c-0.314-3.772-1.312-7.222-3.264-11.042C127.977,95.854,137.354,97.919,141.61,102.775z
			 M112.376,93.489c0.006,0.015,0.006,0.04,0.012,0.052c3.991,6.004,5.002,9.621,5.3,13.205c0.493,6.205,1.358,12.005,4.546,15.67
			h-12.404c-2.85-4.189-5.161-8.424-6.85-12.613c-0.07-0.192-0.137-0.387-0.207-0.597c-2.077-5.328-3.243-10.602-3.623-15.716
			H112.376L112.376,93.489z M76.553,79.243v3.118l-0.131-3.118c-2.862-0.07-5.136-2.463-5.075-5.319
			c0.076-2.843,2.338-5.069,5.313-5.069h0.018c1.397,0.036,2.688,0.6,3.647,1.607c0.941,0.999,1.452,2.313,1.428,3.705
			C81.674,76.948,79.348,79.243,76.553,79.243z"/>
	</g>
</g>
</svg>